<svg display="none" width="0" height="0" version="1.1" xmlns="http://www.w3.org/2000/svg" xmlns:xlink="http://www.w3.org/1999/xlink">
  <defs>
    <symbol id="icon-angle-up" viewBox="0 0 21 32">
      <title>angle-up</title>
      <path
        d="M19.196 19.935q0 0.224-0.192 0.384l-0.897 0.897q-0.16 0.192-0.384 0.192t-0.416-0.192l-7.047-7.015-7.015 7.015q-0.16 0.192-0.416 0.192t-0.384-0.192l-0.897-0.897q-0.192-0.16-0.192-0.384t0.192-0.416l8.328-8.328q0.16-0.192 0.384-0.192t0.416 0.192l8.328 8.328q0.192 0.16 0.192 0.416z"></path>
    </symbol>
    <symbol id="icon-code" viewBox="0 0 21 32">
      <title>code</title>
      <path
        d="M11.019 25.204l-0.897 0.897q-0.16 0.16-0.384 0.16t-0.416-0.16l-8.328-8.36q-0.192-0.16-0.192-0.384t0.192-0.416l8.328-8.328q0.16-0.192 0.416-0.192t0.384 0.192l0.897 0.897q0.192 0.16 0.192 0.416t-0.192 0.384l-7.015 7.047 7.015 7.015q0.192 0.192 0.192 0.416t-0.192 0.416zM21.589 6.113l-6.662 23.095q-0.064 0.224-0.288 0.352t-0.416 0.032l-1.089-0.288q-0.256-0.096-0.352-0.288t-0.064-0.448l6.695-23.063q0.064-0.256 0.256-0.352t0.416-0.064l1.121 0.32q0.224 0.064 0.352 0.288t0.032 0.416zM33.345 17.741l-8.328 8.36q-0.192 0.16-0.416 0.16t-0.416-0.16l-0.897-0.897q-0.16-0.192-0.16-0.416t0.16-0.416l7.015-7.015-7.015-7.047q-0.16-0.16-0.16-0.384t0.16-0.416l0.897-0.897q0.192-0.192 0.416-0.192t0.416 0.192l8.328 8.328q0.16 0.16 0.16 0.416t-0.16 0.384z"></path>
    </symbol>
    <symbol id="icon-skype" viewBox="0 0 27 32">
      <title>skype</title>
      <path
        d="M20.98 19.182q0-0.897-0.352-1.634t-0.865-1.217-1.313-0.865-1.473-0.609-1.57-0.416l-1.858-0.448q-0.545-0.128-0.801-0.192t-0.609-0.192-0.545-0.288-0.288-0.384-0.128-0.512q0-1.377 2.563-1.377 0.769 0 1.377 0.192t0.961 0.512 0.673 0.609 0.737 0.512 0.865 0.224q0.833 0 1.345-0.577t0.512-1.377q0-0.993-1.025-1.762t-2.53-1.217-3.235-0.416q-1.217 0-2.37 0.288t-2.146 0.833-1.57 1.537-0.609 2.306q0 1.089 0.32 1.922t1.025 1.345 1.409 0.865 1.858 0.577l2.595 0.641q1.634 0.384 2.018 0.641 0.577 0.352 0.577 1.089 0 0.673-0.737 1.153t-1.858 0.448q-0.929 0-1.634-0.288t-1.185-0.705-0.801-0.801-0.833-0.673-0.961-0.288q-0.897 0-1.345 0.545t-0.448 1.313q0 1.666 2.178 2.819t5.189 1.185q1.313 0 2.498-0.32t2.21-0.961 1.57-1.666 0.609-2.37zM27.451 23.058q0 2.851-2.018 4.869t-4.837 2.018q-2.338 0-4.196-1.441-1.377 0.288-2.659 0.288-2.563 0-4.901-0.993t-4.036-2.691-2.659-4.004-0.993-4.901q0-1.313 0.288-2.691-1.441-1.858-1.441-4.164 0-2.851 2.018-4.869t4.837-2.018q2.338 0 4.196 1.441 1.377-0.288 2.691-0.288 2.53 0 4.869 0.993t4.036 2.691 2.691 4.004 0.961 4.901q0 1.313-0.256 2.691 1.409 1.858 1.409 4.164z"></path>
    </symbol>
    <symbol id="icon-facebook" viewBox="0 0 27 32">
      <title>facebook</title>
      <path d="M17.137 0.412v4.709h-2.787q-1.537 0-2.082 0.641t-0.545 1.922v3.395h5.253l-0.705 5.285h-4.548v13.581h-5.477v-13.581h-4.548v-5.285h4.548v-3.908q0-3.331 1.858-5.157t4.965-1.826q2.627 0 4.068 0.224z"></path>
    </symbol>
    <symbol id="icon-github" viewBox="0 0 27 32">
      <title>github</title>
      <path
        d="M13.741 2.462q3.716 0 6.887 1.858t4.997 4.997 1.826 6.887q0 4.484-2.627 8.072t-6.759 4.965q-0.48 0.096-0.705-0.128t-0.224-0.545q0-0.032 0-1.377t0-2.402q0-1.73-0.929-2.53 1.025-0.096 1.826-0.32t1.698-0.705 1.441-1.185 0.961-1.858 0.352-2.691q0-2.146-1.409-3.684 0.673-1.634-0.128-3.652-0.512-0.16-1.473 0.192t-1.634 0.801l-0.673 0.416q-1.666-0.48-3.427-0.48t-3.459 0.48q-0.256-0.192-0.737-0.48t-1.505-0.705-1.505-0.224q-0.801 2.018-0.16 3.652-1.409 1.537-1.409 3.684 0 1.505 0.384 2.659t0.929 1.89 1.441 1.185 1.666 0.705 1.826 0.32q-0.673 0.641-0.865 1.858-0.384 0.16-0.801 0.256t-1.025 0.096-1.153-0.384-0.993-1.121q-0.352-0.577-0.865-0.929t-0.897-0.448l-0.352-0.032q-0.384 0-0.513 0.064t-0.096 0.224 0.16 0.256 0.224 0.192l0.128 0.096q0.384 0.192 0.769 0.673t0.577 0.929l0.192 0.416q0.224 0.673 0.769 1.089t1.185 0.545 1.249 0.096 0.993-0.032l0.416-0.096q0 0.705 0 1.602t0.032 0.961q0 0.32-0.256 0.545t-0.705 0.128q-4.132-1.377-6.759-4.965t-2.627-8.072q0-3.748 1.858-6.887t4.965-4.997 6.919-1.858zM5.189 22.193q0.064-0.128-0.096-0.224-0.192-0.032-0.256 0.032-0.032 0.128 0.128 0.224t0.224-0.032zM5.766 22.802q0.128-0.096-0.032-0.288-0.192-0.16-0.288-0.064-0.128 0.096 0.032 0.288t0.288 0.064zM6.278 23.603q0.192-0.128 0-0.352-0.128-0.224-0.288-0.096-0.16 0.096 0 0.32t0.288 0.128zM7.047 24.339q0.128-0.128-0.064-0.32-0.224-0.224-0.352-0.064-0.16 0.16 0.064 0.352 0.192 0.192 0.352 0.032zM8.072 24.788q0.032-0.192-0.256-0.288-0.256-0.064-0.32 0.128t0.224 0.288q0.256 0.096 0.352-0.128zM9.193 24.884q0-0.224-0.32-0.192-0.288 0-0.288 0.192 0 0.224 0.32 0.192 0.288 0 0.288-0.192zM10.218 24.724q-0.032-0.224-0.32-0.16-0.288 0.032-0.256 0.256t0.32 0.128 0.256-0.224z"></path>
    </symbol>
    <symbol id="icon-gplus" viewBox="0 0 27 32">
      <title>gplus</title>
      <path
        d="M25.689 16.492q0 3.748-1.57 6.63t-4.42 4.548-6.598 1.634q-2.659 0-5.093-1.025t-4.196-2.787-2.787-4.196-1.025-5.093 1.025-5.093 2.787-4.196 4.196-2.787 5.093-1.025q5.125 0 8.777 3.427l-3.555 3.427q-2.082-2.018-5.221-2.018-2.21 0-4.068 1.089t-2.947 3.011-1.089 4.164 1.089 4.164 2.947 3.011 4.068 1.089q1.473 0 2.723-0.416t2.050-1.025 1.409-1.377 0.865-1.505 0.384-1.313h-7.431v-4.516h12.364q0.224 1.153 0.224 2.178zM41.192 14.313v3.78h-3.748v3.716h-3.748v-3.716h-3.748v-3.78h3.748v-3.716h3.748v3.716h3.748z"></path>
    </symbol>
    <symbol id="icon-linkedin" viewBox="0 0 27 32">
      <title>linkedin</title>
      <path
        d="M6.246 11.367v17.713h-5.894v-17.713h5.894zM6.63 5.889q0 1.313-0.929 2.178t-2.402 0.865h-0.032q-1.473 0-2.37-0.865t-0.897-2.178 0.929-2.178 2.402-0.865 2.37 0.865 0.929 2.178zM27.451 18.926v10.154h-5.862v-9.481q0-1.89-0.737-2.947t-2.274-1.057q-1.121 0-1.858 0.609t-1.153 1.538q-0.192 0.545-0.192 1.441v9.898h-5.894q0.032-7.143 0.032-11.563t0-5.285l-0.032-0.865h5.894v2.563h-0.032q0.352-0.577 0.737-0.993t0.993-0.929 1.57-0.769 2.050-0.288q3.043 0 4.901 2.018t1.858 5.958z"></path>
    </symbol>
    <symbol id="icon-mail" viewBox="0 0 27 32">
      <title>mail</title>
      <path
        d="M32.031 12.872v14.19q0 1.185-0.833 2.018t-2.018 0.865h-26.33q-1.153 0-2.018-0.865t-0.833-2.018v-14.19q0.801 0.865 1.794 1.57 6.47 4.388 8.905 6.15 1.025 0.769 1.634 1.185t1.698 0.865 1.954 0.416h0.064q0.897 0 1.954-0.416t1.698-0.865 1.634-1.185q3.043-2.178 8.905-6.15 1.025-0.705 1.794-1.57zM32.031 7.619q0 1.409-0.865 2.691t-2.178 2.21q-6.727 4.677-8.392 5.798-0.16 0.128-0.737 0.545t-0.961 0.705-0.929 0.577-1.025 0.48-0.897 0.16h-0.064q-0.384 0-0.865-0.16t-1.025-0.48-0.961-0.577-0.961-0.705-0.737-0.545q-1.634-1.121-4.709-3.235t-3.652-2.563q-1.121-0.737-2.082-2.050t-0.993-2.466q0-1.377 0.737-2.306t2.114-0.929h26.33q1.153 0 2.018 0.833t0.833 2.018z"></path>
    </symbol>
    <symbol id="icon-star" width="20" height="50" viewBox="0 0 500 500">
      <title>star</title>
      <path
        d="M0 250V0h500v500H0V250zm191 178l59-33 61 33c33 19 63 31 66 28 3-2 0-37-7-76l-12-72 52-53c58-59 59-58-38-70l-53-7-32-64c-17-35-34-64-37-64s-20 29-37 64l-32 64-53 7c-97 12-96 11-38 70l52 53-11 64c-12 73-13 88-5 88 3 0 32-15 65-32z"
        fill="#e3a600"/>
        <path fill="#f8e8bc"
          d="M0 348V195l62 62 61 61-13 91-13 91H0V348zM116 491c5-4 37-23 72-41l62-33 63 33c34 18 66 37 72 41 5 5-53 9-135 9s-140-4-134-9zM390 409l-13-91 61-61 62-62v305h-97l-13-91zM0 96V0h500v193l-32-7c-18-3-56-9-85-13l-54-6-36-78c-20-44-39-79-43-79s-23 35-43 79l-36 78-54 6c-29 4-67 10-85 13l-32 7V96z"/>
        <path fill="#fffffe"
          d="M0 350c0-82 2-150 4-150s29 29 60 64l56 64-15 83c-8 46-15 85-15 87 0 1-20 2-45 2H0V350zM178 460l72-41 73 41 72 40H105l73-40zM410 498c0-2-7-41-15-87l-15-83 56-64c31-35 58-64 60-64s4 68 4 150v150h-45c-25 0-45-1-45-2zM0 94V0h120c66 0 120 2 120 4 0 3-15 39-34 80-31 68-37 75-68 80-18 3-57 10-85 15l-53 8V94zM445 179c-27-5-65-12-83-15-31-5-37-12-68-80-19-41-34-77-34-80 0-2 54-4 120-4h120v95c0 52-1 94-2 94-2-1-25-5-53-10z"/>
    </symbol>
  </defs>
</svg>
